<svg width="1329" height="140" viewBox="0 0 1329 140" fill="none" xmlns="http://www.w3.org/2000/svg">
<g clip-path="url(#clip0_22_2)">
<path d="M408.999 80.5167V99.1167H450.998V122.217H385V17.2167H450.248V40.3167H408.999V57.7167H446.498V80.5167H408.999Z" fill="#0C091D"/>
<path d="M509.482 45.1167C517.581 45.1167 524.231 47.8667 529.431 53.3667C534.831 58.9667 537.531 66.5667 537.531 76.1667V122.217H515.031V79.4667C515.031 75.1667 513.831 71.8167 511.431 69.4167C509.032 67.0167 505.882 65.8167 501.982 65.8167C497.582 65.8167 494.157 67.1417 491.707 69.7917C489.257 72.4417 488.032 76.2667 488.032 81.2667V122.217H465.533V47.2167H488.032V54.2667C492.532 48.1667 499.682 45.1167 509.482 45.1167Z" fill="#0C091D"/>
<path d="M576.065 69.1167C576.065 70.4167 577.115 71.5417 579.215 72.4917C581.315 73.4417 584.615 74.5167 589.115 75.7167C605.114 79.2167 613.064 87.2167 612.964 99.7167C612.964 107.817 609.964 113.967 603.964 118.167C597.864 122.267 590.465 124.317 581.765 124.317C565.965 124.317 555.216 118.367 549.516 106.467L569.015 95.3667C571.015 101.267 575.265 104.217 581.765 104.217C587.165 104.217 589.865 102.667 589.865 99.5667C589.865 97.3667 585.515 95.1667 576.815 92.9667C573.615 92.0667 570.865 91.1417 568.565 90.1917C566.265 89.2417 563.791 87.8917 561.141 86.1417C558.491 84.3917 556.466 82.1167 555.066 79.3167C553.666 76.5167 552.966 73.3167 552.966 69.7167C552.966 62.0167 555.766 55.9667 561.366 51.5667C566.965 47.2667 573.965 45.1167 582.365 45.1167C595.464 45.1167 605.214 50.4667 611.614 61.1667L592.415 71.5167C590.015 67.1167 586.665 64.9167 582.365 64.9167C578.165 64.9167 576.065 66.3167 576.065 69.1167Z" fill="#0C091D"/>
<path d="M674.448 88.1667V47.2167H696.947V122.217H674.448V115.167C669.948 121.267 662.798 124.317 652.998 124.317C644.998 124.317 638.299 121.567 632.899 116.067C627.599 110.467 624.949 102.867 624.949 93.2667V47.2167H647.448V89.9667C647.448 94.2667 648.648 97.6167 651.048 100.017C653.448 102.417 656.598 103.617 660.498 103.617C664.898 103.617 668.323 102.292 670.773 99.6417C673.223 96.9917 674.448 93.1667 674.448 88.1667Z" fill="#0C091D"/>
<path d="M788.579 93.7167H735.331C737.831 100.717 743.831 104.217 753.331 104.217C759.43 104.217 764.23 102.317 767.73 98.5167L785.729 108.867C778.43 119.167 767.53 124.317 753.031 124.317C740.531 124.317 730.431 120.567 722.732 113.067C715.232 105.567 711.482 96.1167 711.482 84.7167C711.482 73.5167 715.182 64.1167 722.582 56.5167C730.081 48.9167 739.681 45.1167 751.381 45.1167C762.28 45.1167 771.33 48.9167 778.53 56.5167C785.829 63.9167 789.479 73.3167 789.479 84.7167C789.479 87.9167 789.179 90.9167 788.579 93.7167ZM734.881 76.9167H767.13C764.93 69.0167 759.63 65.0667 751.231 65.0667C742.531 65.0667 737.081 69.0167 734.881 76.9167Z" fill="#0C091D"/>
<path d="M822.314 69.1167C822.314 70.4167 823.364 71.5417 825.464 72.4917C827.564 73.4417 830.864 74.5167 835.364 75.7167C851.363 79.2167 859.313 87.2167 859.213 99.7167C859.213 107.817 856.213 113.967 850.213 118.167C844.113 122.267 836.714 124.317 828.014 124.317C812.214 124.317 801.465 118.367 795.765 106.467L815.264 95.3667C817.264 101.267 821.514 104.217 828.014 104.217C833.414 104.217 836.114 102.667 836.114 99.5667C836.114 97.3667 831.764 95.1667 823.064 92.9667C819.864 92.0667 817.114 91.1417 814.814 90.1917C812.514 89.2417 810.039 87.8917 807.389 86.1417C804.74 84.3917 802.715 82.1167 801.315 79.3167C799.915 76.5167 799.215 73.3167 799.215 69.7167C799.215 62.0167 802.015 55.9667 807.615 51.5667C813.214 47.2667 820.214 45.1167 828.614 45.1167C841.713 45.1167 851.463 50.4667 857.863 61.1667L838.663 71.5167C836.264 67.1167 832.914 64.9167 828.614 64.9167C824.414 64.9167 822.314 66.3167 822.314 69.1167Z" fill="#0C091D"/>
<path d="M935.696 112.917C928.096 120.517 918.697 124.317 907.497 124.317C896.297 124.317 886.898 120.517 879.298 112.917C871.598 105.217 867.748 95.8167 867.748 84.7167C867.748 73.7167 871.598 64.3667 879.298 56.6667C886.998 48.9667 896.397 45.1167 907.497 45.1167C918.597 45.1167 927.996 48.9667 935.696 56.6667C943.396 64.3667 947.246 73.7167 947.246 84.7167C947.246 95.8167 943.396 105.217 935.696 112.917ZM890.248 84.7167C890.248 89.9167 891.897 94.1667 895.197 97.4667C898.497 100.767 902.597 102.417 907.497 102.417C912.397 102.417 916.497 100.767 919.797 97.4667C923.096 94.1667 924.746 89.9167 924.746 84.7167C924.746 79.5167 923.096 75.2667 919.797 71.9667C916.497 68.6667 912.397 67.0167 907.497 67.0167C902.597 67.0167 898.497 68.6667 895.197 71.9667C891.897 75.2667 890.248 79.5167 890.248 84.7167Z" fill="#0C091D"/>
<path d="M1000.78 15.1167V36.7167C991.48 35.9167 986.83 39.4167 986.83 47.2167H1000.78V68.8167H986.83V122.217H964.331V68.8167H954.281V47.2167H964.331C964.331 36.3167 967.431 28.0667 973.63 22.4667C979.83 16.8667 988.88 14.4167 1000.78 15.1167Z" fill="#0C091D"/>
<path d="M1057.01 47.2167V68.8167H1041.56V95.3667C1041.56 98.2667 1042.71 100.142 1045.01 100.992C1047.31 101.842 1051.31 102.117 1057.01 101.817V122.217C1042.81 123.717 1032.91 122.367 1027.31 118.167C1021.81 113.867 1019.06 106.267 1019.06 95.3667V68.8167H1007.06V47.2167H1019.06V32.9667L1041.56 26.2167V47.2167H1057.01Z" fill="#0C091D"/>
<path d="M202.574 0.0958248L153.32 70.0479L126.872 107.611L124.093 111.54C113.936 125.051 98.8912 134.634 81.6427 137.796C77.5222 138.563 73.306 138.946 68.9938 138.946C62.7652 138.946 56.6324 138.084 50.883 136.55C44.3669 134.73 38.1383 132.047 32.5804 128.501C13.0322 116.331 0 94.6749 0 69.9521C0 31.8138 30.8556 0.958248 68.9938 0.958248C85.1882 0.958248 100.041 6.51608 111.828 15.9069C117.098 20.0274 121.697 24.9144 125.53 30.4723L113.457 47.6249L97.6454 70.0479H73.6893L100.712 31.6222C92.0876 24.4353 80.9719 20.219 68.898 20.219C41.3963 20.219 19.0691 42.5462 19.0691 70.0479C19.0691 88.2546 28.8433 104.257 43.5044 112.882C49.2539 116.331 55.8658 118.631 62.8611 119.493C64.8734 119.781 66.8857 119.877 68.898 119.877C83.2717 119.877 96.3039 113.744 105.311 103.97C108.378 100.616 111.061 96.8789 113.169 92.7584L129.172 69.9521L136.934 58.9322L178.426 0H202.574V0.0958248Z" fill="url(#paint0_linear_22_2)"/>
<path d="M334.524 70.0479C334.524 108.186 303.669 139.042 265.53 139.042C241.958 139.042 221.068 127.159 208.611 109.049L220.589 91.6085C228.638 108.282 245.695 119.781 265.435 119.781C292.936 119.781 315.264 97.4538 315.264 69.9521C315.264 42.4504 292.936 20.1232 265.435 20.1232C251.061 20.1232 238.029 26.256 229.021 36.0301C225.955 39.384 223.272 43.1212 221.164 47.2416L197.399 81.0678L155.907 140H131.951L207.556 32.5804V32.4846L210.335 28.46V28.3641C220.493 14.9487 235.537 5.36619 252.786 2.10815C256.906 1.34155 261.123 0.958252 265.435 0.958252C303.669 1.05408 334.524 31.9097 334.524 70.0479Z" fill="url(#paint1_linear_22_2)"/>
<path d="M1078.15 123V34.211H1117.47C1137.76 34.211 1148.54 44.9925 1148.54 57.6767C1148.54 65.1603 1145.25 69.4729 1141.82 72.3903C1139.92 74.0392 1137.64 75.1808 1135.23 76.0687C1138.52 77.2103 1141.44 78.7324 1144.1 80.7618C1148.54 84.1865 1152.98 89.6407 1152.98 98.2659C1152.98 111.584 1141.57 123 1120.64 123H1078.15ZM1102.25 103.974H1118.74C1124.44 103.974 1128.25 100.169 1128.25 95.0949C1128.25 90.0212 1124.44 86.216 1118.74 86.216H1102.25V103.974ZM1102.25 68.4582H1115.57C1120.77 68.4582 1123.81 65.2872 1123.81 60.8477C1123.81 56.4083 1120.64 53.2372 1115.57 53.2372H1102.25V68.4582ZM1196.12 104.608C1202.46 104.608 1208.17 98.9001 1208.17 91.9239C1208.17 84.9476 1202.46 79.2397 1196.12 79.2397C1189.78 79.2397 1184.07 84.9476 1184.07 91.9239C1184.07 98.9001 1189.78 104.608 1196.12 104.608ZM1161.87 91.9239C1161.87 74.1661 1176.46 59.5793 1196.12 59.5793C1215.78 59.5793 1230.37 74.1661 1230.37 91.9239C1230.37 109.682 1215.78 124.268 1196.12 124.268C1176.46 124.268 1161.87 109.682 1161.87 91.9239ZM1247.54 100.169V82.4108H1238.66V62.1161H1242.46C1246.9 62.1161 1250.07 58.9451 1250.07 54.5056V43.0899H1269.1V62.1161H1281.15V82.4108H1269.1V96.3633C1269.1 101.437 1271.38 103.974 1276.07 103.974C1277.85 103.974 1279.37 103.72 1280.64 103.34C1281.27 103.213 1281.91 102.959 1282.42 102.705V122.366L1278.74 123.381C1276.33 123.888 1273.16 124.268 1269.73 124.268C1256.41 124.268 1247.54 115.516 1247.54 100.169Z" fill="#FF375F"/>
</g>
<defs>
<linearGradient id="paint0_linear_22_2" x1="-2.11046e-06" y1="13.5" x2="161" y2="139" gradientUnits="userSpaceOnUse">
<stop stop-color="#FFC929"/>
<stop offset="0.475" stop-color="#FF375F"/>
<stop offset="1" stop-color="#3318F3"/>
</linearGradient>
<linearGradient id="paint1_linear_22_2" x1="131.951" y1="14.4676" x2="293.035" y2="139.946" gradientUnits="userSpaceOnUse">
<stop stop-color="#FFC929"/>
<stop offset="0.475" stop-color="#FF375F"/>
<stop offset="1" stop-color="#3318F3"/>
</linearGradient>
<clipPath id="clip0_22_2">
<rect width="1329" height="140" fill="white"/>
</clipPath>
</defs>
</svg>
