<svg width="335" height="140" viewBox="0 0 335 140" fill="none" xmlns="http://www.w3.org/2000/svg">
<path d="M202.574 0.0958248L153.32 70.0479L126.872 107.611L124.093 111.54C113.936 125.051 98.8912 134.634 81.6427 137.796C77.5222 138.563 73.306 138.946 68.9938 138.946C62.7652 138.946 56.6324 138.084 50.883 136.55C44.3669 134.73 38.1383 132.047 32.5804 128.501C13.0322 116.331 0 94.6749 0 69.9521C0 31.8138 30.8556 0.958248 68.9938 0.958248C85.1882 0.958248 100.041 6.51608 111.828 15.9069C117.098 20.0274 121.697 24.9144 125.53 30.4723L113.457 47.6249L97.6454 70.0479H73.6893L100.712 31.6222C92.0876 24.4353 80.9719 20.219 68.898 20.219C41.3963 20.219 19.0691 42.5462 19.0691 70.0479C19.0691 88.2546 28.8433 104.257 43.5044 112.882C49.2539 116.331 55.8658 118.631 62.8611 119.493C64.8734 119.781 66.8857 119.877 68.898 119.877C83.2717 119.877 96.3039 113.744 105.311 103.97C108.378 100.616 111.061 96.8788 113.169 92.7584L129.172 69.9521L136.934 58.9322L178.426 0H202.574V0.0958248Z" fill="url(#paint0_linear_18_23)"/>
<path d="M334.524 70.0479C334.524 108.186 303.669 139.042 265.53 139.042C241.958 139.042 221.068 127.159 208.611 109.049L220.589 91.6085C228.638 108.282 245.695 119.781 265.435 119.781C292.936 119.781 315.263 97.4538 315.263 69.9521C315.263 42.4504 292.936 20.1232 265.435 20.1232C251.061 20.1232 238.029 26.256 229.021 36.0301C225.955 39.384 223.272 43.1212 221.164 47.2416L197.399 81.0678L155.907 140H131.951L207.556 32.5804V32.4846L210.335 28.46V28.3641C220.493 14.9487 235.537 5.36619 252.786 2.10815C256.906 1.34155 261.122 0.958252 265.435 0.958252C303.669 1.05408 334.524 31.9097 334.524 70.0479Z" fill="url(#paint1_linear_18_23)"/>
<defs>
<linearGradient id="paint0_linear_18_23" x1="-2.11046e-06" y1="13.5" x2="161" y2="139" gradientUnits="userSpaceOnUse">
<stop stop-color="#FFC929"/>
<stop offset="0.475" stop-color="#FF375F"/>
<stop offset="1" stop-color="#3318F3"/>
</linearGradient>
<linearGradient id="paint1_linear_18_23" x1="131.951" y1="14.4676" x2="293.035" y2="139.946" gradientUnits="userSpaceOnUse">
<stop stop-color="#FFC929"/>
<stop offset="0.475" stop-color="#FF375F"/>
<stop offset="1" stop-color="#3318F3"/>
</linearGradient>
</defs>
</svg>
